<svg width="736" height="384" viewBox="0 0 736 384" fill="none" xmlns="http://www.w3.org/2000/svg">
<path d="M736 0H0V303H736V0Z" fill="white"/>
<path opacity="0.33" d="M298.613 315.669C307.712 315.669 315.089 313.726 315.089 311.331C315.089 308.935 307.712 306.993 298.613 306.993C289.513 306.993 282.137 308.935 282.137 311.331C282.137 313.726 289.513 315.669 298.613 315.669Z" fill="#B4CDD6"/>
<path opacity="0.8" d="M479.723 338.531C546.021 338.531 599.766 334.27 599.766 329.014C599.766 323.758 546.021 319.497 479.723 319.497C413.425 319.497 359.68 323.758 359.68 329.014C359.68 334.27 413.425 338.531 479.723 338.531Z" fill="#DAE8EB"/>
<path d="M574.385 136.64H424.624V247.168H574.385V136.64Z" fill="white"/>
<path fill-rule="evenodd" clip-rule="evenodd" d="M496.379 318.188V250.068C496.379 248.662 497.94 247.513 499.842 247.513C501.749 247.513 503.306 248.662 503.306 250.068V318.188C503.306 319.595 501.749 320.745 499.842 320.745C497.939 320.745 496.379 319.595 496.379 318.188Z" fill="#050B1B"/>
<path d="M499.54 138.096H577.85V249.964H499.54V245.751H570.983V142.31H499.54V138.096ZM424.655 138.096H499.54V142.31H428.09V245.751H499.54V249.964H421.226V138.096H424.655Z" fill="#C6E9EF"/>
<path fill-rule="evenodd" clip-rule="evenodd" d="M442.173 326.673L479.503 251.88H486.764L448.779 327.983C447.134 331.281 440.51 330.446 442.173 326.673Z" fill="#050B1B"/>
<path fill-rule="evenodd" clip-rule="evenodd" d="M557.518 326.673L520.189 251.88H512.926L550.911 327.983C552.332 330.859 559.13 329.909 557.518 326.673Z" fill="#050B1B"/>
<path d="M534.617 287.429H465.071V291.796H534.617V287.429Z" fill="#050B1B"/>
<path d="M515.015 169.697H504.363V231.108H515.015V169.697Z" stroke="#53729D" stroke-width="2" stroke-miterlimit="10"/>
<path d="M502.698 192.852H492.041V231.107H502.698V192.852Z" stroke="#6D8AB1" stroke-width="2" stroke-miterlimit="10"/>
<path d="M490.379 205.807H479.723V231.106H490.379V205.807Z" stroke="#86A1C5" stroke-width="2" stroke-miterlimit="10"/>
<path d="M478.059 193.944H467.405V231.108H478.059V193.944Z" stroke="#A2BBD9" stroke-width="2" stroke-miterlimit="10"/>
<path d="M465.739 204.531H455.084V231.106H465.739V204.531Z" stroke="#BED3ED" stroke-width="2" stroke-miterlimit="10"/>
<path d="M455.084 234.407H519.036V165.331" stroke="#53729D" stroke-width="2" stroke-miterlimit="10"/>
<path d="M519.037 163.807C519.304 164.524 519.758 165.413 520.24 165.965L519.037 165.531L517.834 165.965C518.316 165.413 518.771 164.524 519.037 163.807Z" fill="#53729D"/>
<path fill-rule="evenodd" clip-rule="evenodd" d="M419.615 248.533H580.138C582.043 248.533 583.602 249.517 583.602 250.717C583.602 251.917 582.043 252.9 580.138 252.9H419.615C417.708 252.9 416.15 251.917 416.15 250.717C416.15 249.517 417.708 248.533 419.615 248.533Z" fill="#342B1E"/>
<path fill-rule="evenodd" clip-rule="evenodd" d="M419.615 133.733H580.138C582.043 133.733 583.602 134.716 583.602 135.916C583.602 137.118 582.043 138.1 580.138 138.1H419.615C417.708 138.1 416.15 137.118 416.15 135.916C416.15 134.713 417.708 133.733 419.615 133.733Z" fill="#342B1E"/>
<path d="M560.434 170.438H527.999C527.866 170.438 527.759 170.545 527.759 170.678V171.185C527.759 171.318 527.866 171.425 527.999 171.425H560.434C560.567 171.425 560.674 171.318 560.674 171.185V170.678C560.674 170.545 560.567 170.438 560.434 170.438Z" fill="#342B1E"/>
<path d="M560.434 172.838H527.999C527.866 172.838 527.759 172.946 527.759 173.078V173.586C527.759 173.719 527.866 173.826 527.999 173.826H560.434C560.567 173.826 560.674 173.719 560.674 173.586V173.078C560.674 172.946 560.567 172.838 560.434 172.838Z" fill="#342B1E"/>
<path d="M560.434 175.238H527.999C527.866 175.238 527.759 175.345 527.759 175.478V175.985C527.759 176.118 527.866 176.225 527.999 176.225H560.434C560.567 176.225 560.674 176.118 560.674 175.985V175.478C560.674 175.345 560.567 175.238 560.434 175.238Z" fill="#342B1E"/>
<path d="M560.434 177.637H527.999C527.866 177.637 527.759 177.745 527.759 177.877V178.385C527.759 178.517 527.866 178.625 527.999 178.625H560.434C560.567 178.625 560.674 178.517 560.674 178.385V177.877C560.674 177.745 560.567 177.637 560.434 177.637Z" fill="#342B1E"/>
<path d="M548.051 180.037H527.999C527.866 180.037 527.759 180.144 527.759 180.276V180.784C527.759 180.917 527.866 181.024 527.999 181.024H548.051C548.184 181.024 548.292 180.917 548.292 180.784V180.276C548.292 180.144 548.184 180.037 548.051 180.037Z" fill="#342B1E"/>
<path d="M380.776 302.951L379.904 318.387L378.9 321.288L374.445 320.069L373.929 314.37L373.004 304.16L380.776 302.951Z" fill="#F6D6CB"/>
<path d="M380.121 314.559L379.904 318.387L378.9 321.292L374.445 320.073L373.929 314.374C375.502 314.804 377.829 315.179 380.121 314.559Z" fill="#111751"/>
<path d="M398.711 298.973L397.786 312.124L397.337 318.512L391.658 319.456L391.393 312.414L391.035 302.884L398.711 298.973Z" fill="#F6D6CB"/>
<path d="M397.787 312.122L397.338 318.512L391.658 319.456L391.394 312.414C392.789 312.746 395.574 313.179 397.787 312.122Z" fill="#111751"/>
<path d="M404.103 261.775C402.079 274.18 399.022 303.603 399.022 303.603C396.705 305.183 394.484 305.263 392.85 304.957C391.921 304.794 391.029 304.465 390.216 303.987C388.626 295.787 387.262 265.321 387.195 263.807C387.195 264 387.174 264.253 387.14 264.553C386.834 267.369 385.292 274.237 385.292 274.237C382.463 281.651 381.076 305.717 381.076 305.717C374.102 308.232 372.182 304.913 372.182 304.913C372.182 304.913 368.859 271.961 370.711 267.607C372.562 263.253 370.913 242.449 369.816 234.876C369.444 232.31 369.408 229.583 369.523 227.098C369.658 224.153 369.998 221.222 370.541 218.324L375.342 217.9L403.378 215.428C403.378 215.428 403.475 216.622 403.618 218.646C403.673 219.397 403.732 220.264 403.796 221.227C404.477 231.475 405.606 252.564 404.103 261.775Z" fill="#243B7F"/>
<path d="M403.864 222.24C403.864 222.24 387.57 228.084 382.116 227.911C376.663 227.738 369.973 236.014 369.973 236.014C369.973 236.014 368.733 226.347 369.973 224.269C371.212 222.192 403.798 221.231 403.798 221.231L403.864 222.24Z" fill="#111751"/>
<path d="M390.216 303.986C388.614 295.722 387.242 264.839 387.194 263.778C387.189 264.037 387.171 264.296 387.141 264.553L387.194 263.749L393.364 227.56C393.364 227.56 394.981 234.001 391.525 252.766C388.516 269.105 391.92 297.805 392.849 304.953C391.921 304.79 391.029 304.463 390.216 303.986Z" fill="#111751"/>
<path d="M398.35 316.187C398.35 316.187 394.836 318.727 391.622 316.658C391.622 316.658 391.213 315.811 390.751 320.194C390.29 324.578 390.447 325.522 390.447 325.522C390.447 325.522 398.599 327.164 413.283 326.659C413.283 326.659 416.422 326.094 415.738 322.323C415.738 322.323 415.347 321.379 414.864 321.023C414.381 320.667 404.28 319.115 398.35 316.187Z" fill="#4E445C"/>
<path d="M390.417 324.766C390.417 324.766 411.148 326.482 415.404 325.119C415.404 325.119 415.39 325.316 414.604 327.562L390.4 326.976L390.417 324.766Z" fill="#0E0506"/>
<path opacity="0.32" d="M390.751 320.196C390.751 320.196 395.362 324.979 412.96 325.507C412.96 325.507 397.527 326.896 390.421 324.766L390.751 320.196Z" fill="#0E0506"/>
<path d="M379.905 318.387C379.905 318.387 377.413 320.981 374.2 318.913C374.2 318.913 373.79 318.064 373.329 322.448C372.867 326.833 373.024 327.776 373.024 327.776C373.024 327.776 381.176 329.418 395.86 328.913C395.86 328.913 399.001 328.347 398.315 324.576C398.315 324.576 397.926 323.633 397.441 323.277C396.957 322.921 385.834 321.312 379.905 318.387Z" fill="#4E445C"/>
<path d="M372.999 327.02C372.999 327.02 393.73 328.735 397.986 327.374C397.986 327.374 397.971 327.569 397.187 329.816L372.983 329.229L372.999 327.02Z" fill="#0E0506"/>
<path opacity="0.32" d="M373.329 322.45C373.329 322.45 377.94 327.232 395.538 327.761C395.538 327.761 380.106 329.15 372.999 327.02L373.329 322.45Z" fill="#0E0506"/>
<path d="M397.658 146.501C396.966 148.783 395.836 149.681 395.836 149.681L392.837 138.305C392.837 138.305 397.41 134.04 398.084 140.705C398.339 143.217 398.079 145.116 397.658 146.501Z" fill="#4F3B43"/>
<path d="M381.03 162.74C381.03 162.74 382.099 169.868 381.424 172.281C380.748 174.695 388.62 174.582 389.239 173.011C389.239 173.011 388.509 168.521 389.239 164.76C389.968 160.999 381.03 162.74 381.03 162.74Z" fill="#F1B7AC"/>
<path d="M390.438 139.129C390.438 139.129 397.41 139.279 396.89 151.103C396.89 151.103 396.439 152.45 397.564 154.995C398.688 157.539 393.741 167.417 389.394 166.893C385.046 166.369 378.073 163.75 375.75 157.389C375.75 157.389 371.777 154.471 372.977 150.655C374.177 146.838 390.438 139.129 390.438 139.129Z" fill="#F1B7AC"/>
<path d="M393.359 140.287C393.359 140.287 390.283 140.065 388.917 142.927C387.55 145.79 380.636 152.16 380.804 154.517L380.768 156.266L378.799 153.833C378.799 153.833 376.748 150.624 374.096 152.781C371.445 154.938 374.79 147.963 374.79 147.963C374.79 147.963 390.844 135.036 393.359 140.287Z" fill="#EFBEAF"/>
<path d="M382.155 148.783C382.155 148.783 379.606 150.466 380.763 156.267C380.763 156.267 377.764 153.834 377.539 149.681C377.314 145.528 382.155 148.783 382.155 148.783Z" fill="#331A24"/>
<path d="M393.778 140.611C393.778 140.611 390.757 137.596 388.058 143.097C387.423 144.412 386.603 145.631 385.623 146.715C382.933 149.678 379.372 151.084 375.688 151.458C375.688 151.458 374.64 151.6 374.201 152.513C374.183 152.547 374.167 152.582 374.154 152.618C373.81 153.464 373.98 154.917 375.748 157.382C375.748 157.382 376.672 159.751 377.808 160.966C377.808 160.966 379.404 162.341 377.209 162.957C375.015 163.573 376.197 158.579 374.625 157.906C373.74 157.527 371.139 155.712 369.922 153.213C368.981 151.275 368.868 148.919 371.025 146.511C373.838 143.368 375.579 136.857 381.427 134.22C391.532 129.668 395.112 138.213 393.778 140.611Z" fill="#58434A"/>
<path d="M378.364 161.88L378.353 161.853C378.32 161.683 378.253 161.522 378.154 161.38C377.016 158.575 377.319 157.821 377.319 157.821C377.218 157.815 377.117 157.801 377.017 157.779C376.605 157.684 376.217 157.506 375.877 157.256C375.537 157.005 375.252 156.687 375.04 156.322C373.939 154.492 373.86 153.342 374.154 152.626C373.938 153.039 372.97 154.394 369.922 153.221C371.139 155.72 373.737 157.533 374.625 157.913C376.199 158.586 375.017 163.582 377.209 162.964C378.181 162.692 378.409 162.27 378.362 161.885L378.364 161.88Z" fill="#331A24"/>
<path d="M381.358 165.352C381.358 165.352 385.152 169.474 388.917 169.026V166.83C388.917 166.83 384.956 166.248 381.194 163.951L381.358 165.352Z" fill="#F7908B"/>
<path d="M407.99 209.421C406.746 210.26 405.906 210.755 405.668 210.741C405.668 210.741 404.808 214.15 404.537 217.083C404.447 218.059 404.71 217.169 404.71 217.169C404.71 217.169 404.885 213.956 402.623 213.869C400.361 213.782 391.66 214.302 389.833 214.736C388.006 215.171 380.782 218.47 376.258 218.904C371.733 219.337 371.696 223.532 371.696 223.532C371.696 223.532 367.795 222.062 367.477 209.009C366.717 203.884 366.223 198.722 365.997 193.545C365.648 185.21 365.524 177.535 369.286 175.854C373.048 174.173 380.269 170.613 380.269 170.613L385.895 172.554L392.362 170.613C392.362 170.613 400.698 171.385 401.992 172.496C405.096 175.16 408.451 197.34 408.451 197.34C408.451 197.34 407.068 199.887 428.299 186.511L432.035 191.191C432.035 191.191 414.496 205.03 407.99 209.421Z" fill="#FF8A47"/>
<path d="M377.874 171.778C377.874 171.778 381.623 177.674 382.61 177.095C383.597 176.517 384.93 173.996 386.381 175.069C387.832 176.141 388.73 177.215 390.209 175.994C391.687 174.773 394.45 170.803 394.45 170.803C394.45 170.803 384.757 173.418 382.581 172.578C381.261 172.07 379.891 171.7 378.494 171.475L377.874 171.778Z" fill="#E67225"/>
<path d="M406.022 212.154C406.221 213.358 406.286 215.184 405.449 217.021C404.225 219.707 403.796 221.23 403.796 221.23L389.818 224.206C387.816 224.632 385.779 224.881 383.733 224.95L369.523 225.426C369.523 225.426 369.776 224.442 369.297 222.755C368.868 221.251 368.143 219.084 367.73 215.985C367.431 213.673 367.344 211.338 367.47 209.009C368.948 213.438 370.921 214.045 370.921 214.045C375.533 215.09 401.867 211.962 401.867 211.962C401.803 211.771 401.522 210.885 401.488 210.699C401.338 209.897 401.347 209.074 401.514 208.276C401.609 207.797 401.745 207.328 401.921 206.873C402.026 206.604 402.104 206.45 402.104 206.45C402.104 206.45 378.702 206.576 377.539 205.537C376.377 204.497 375.738 190.337 375.738 190.337C375.738 190.337 377.479 201.802 378.368 203.887C379.118 205.645 394.701 205.782 400.378 205.626C400.638 205.619 400.894 205.56 401.132 205.454C401.369 205.348 401.583 205.196 401.761 205.007C401.94 204.818 402.079 204.596 402.171 204.353C402.263 204.11 402.307 203.851 402.298 203.592C402.139 198.553 401.715 185.353 401.666 185.045C401.765 185.406 403.8 198.304 405.799 207.286C405.944 207.938 406.088 208.571 406.232 209.18C404.988 210.02 405.905 210.766 405.667 210.752C405.667 210.752 405.73 210.915 405.81 211.205C405.811 211.208 405.811 211.211 405.81 211.214C405.894 211.522 405.963 211.835 406.016 212.15L406.022 212.154Z" fill="#E67225"/>
<path d="M406.022 212.154C406.022 212.154 403.231 212.049 401.663 213.556C400.296 214.87 375.752 218.309 367.73 215.985C367.431 213.673 367.344 211.338 367.47 209.009C368.948 213.438 370.921 214.046 370.921 214.046C375.533 215.09 401.867 211.962 401.867 211.962C401.803 211.771 401.522 210.885 401.488 210.699C401.338 209.897 401.347 209.074 401.514 208.276C404.756 208.805 405.747 211.045 405.815 211.203C405.815 211.206 405.815 211.209 405.815 211.212L406.021 212.148L406.022 212.154Z" fill="#D15A18"/>
<path d="M428.955 187.991L430.961 190.955C430.961 190.955 431.482 189.754 433.491 188.713C435.5 187.673 439.347 183.225 439.749 182.904C439.913 182.778 440.002 182.273 440.022 181.682C440.05 180.958 440.005 180.234 439.888 179.519C439.87 179.423 439.85 179.334 439.83 179.266C439.782 179.063 439.764 178.853 439.779 178.645C439.822 177.688 440.261 176.306 440.392 175.181C440.551 173.781 439.749 174.221 439.749 174.221C438.311 175.075 437.625 179.198 437.583 179.454C437.583 179.459 437.583 179.463 437.583 179.467C437.583 179.467 434.254 182.471 433.853 182.271C433.452 182.07 434.054 181.068 434.415 180.467C434.775 179.866 434.575 177.665 434.054 177.184C433.533 176.703 433.492 179.548 432.41 180.846C431.327 182.144 430.806 183.599 431.087 184.959C431.251 185.761 430.605 186.615 429.975 187.216C429.666 187.512 429.324 187.772 428.955 187.991Z" fill="#F1B7AC"/>
<path d="M438.232 181.451C439.382 180.597 438.661 179.315 438.527 177.981C438.393 176.646 439.65 176.271 439.65 177.018C439.65 177.414 439.715 178.089 439.777 178.64C439.82 177.683 440.258 176.301 440.389 175.176C440.548 173.775 439.746 174.216 439.746 174.216C438.308 175.07 437.622 179.193 437.581 179.449C437.58 179.453 437.58 179.458 437.581 179.462C438.047 180.836 438.232 181.451 438.232 181.451Z" fill="#F7908B"/>
<path d="M428.955 187.991L430.961 190.955C430.961 190.955 431.482 189.754 433.491 188.713C435.5 187.673 439.347 183.225 439.749 182.904C439.913 182.778 440.002 182.273 440.022 181.682C438.981 182.393 437.189 185.415 434.975 186.549C433.427 187.319 431.666 187.549 429.972 187.203C429.665 187.504 429.323 187.768 428.955 187.991Z" fill="#F7908B"/>
<path d="M411.957 215.367L415.929 208.34C416.233 208.171 416.561 207.684 416.885 206.647L418.372 204.016L420.207 200.771L444.847 159.698C444.847 159.698 445.353 158.579 444.477 158.985C444.189 159.119 439.418 166.771 433.759 175.943C428.101 185.114 421.597 195.783 417.799 202.014L417.23 202.908L410.146 214.043C410.146 214.043 410.315 215.762 411.957 215.367Z" fill="#111751"/>
<path d="M411.957 215.366L415.929 208.34C416.234 208.171 416.561 207.683 416.885 206.647L418.373 204.016C416.874 204.278 417.204 203.006 417.234 202.912L410.15 214.048C410.15 214.048 410.315 215.762 411.957 215.366Z" fill="#010838"/>
<path d="M415.224 206.864C415.279 206.969 415.353 207.064 415.443 207.142C415.443 207.164 415.433 207.303 415.418 207.52C415.348 208.672 415.118 212.077 414.912 212.259C414.677 212.406 414.421 212.517 414.153 212.587C413.946 212.64 413.734 212.673 413.52 212.685C411.858 212.788 409.949 211.825 408.76 211.609C408.507 211.561 408.163 211.508 407.758 211.45L406.973 211.34L405.834 211.198L402.131 210.738L401.498 210.685C401.179 209.113 401.651 207.576 401.932 206.859C402.993 206.985 404.705 207.19 405.813 207.272C406.056 207.288 406.268 207.302 406.445 207.306C407.817 207.34 411.055 206.006 411.945 205.457C412.606 205.049 414.253 205.331 415.065 205.502C415.347 205.561 415.529 205.609 415.529 205.609L415.422 205.718C415.27 205.863 415.17 206.053 415.134 206.259C415.099 206.465 415.13 206.677 415.224 206.864Z" fill="#F1B7AC"/>
<path d="M403.436 208.864L403.203 210.872L404.775 211.063L405.046 208.834L403.436 208.864Z" fill="#100708"/>
<path d="M404.447 209.497C405.173 209.497 405.761 208.909 405.761 208.185C405.761 207.46 405.173 206.873 404.447 206.873C403.721 206.873 403.133 207.46 403.133 208.185C403.133 208.909 403.721 209.497 404.447 209.497Z" fill="#3E2A2C"/>
<path d="M380.492 169.06L385.887 172.549L390.412 168.611L393.776 170.581L388.917 175.85C388.917 175.85 387.918 173.591 385.881 172.549C385.881 172.549 383.384 174.287 382.458 175.85L378.358 171.333L380.492 169.06Z" fill="white"/>
<path d="M452.849 160.143H455.954C457.807 160.143 459.399 160.82 459.399 162.957C459.399 165.028 457.781 165.927 456.006 165.927H455.093V168.61H452.849V160.143ZM455.901 164.155C456.786 164.155 457.206 163.712 457.206 162.957C457.206 162.202 456.711 161.915 455.849 161.915H455.09V164.155H455.901Z" fill="#F89739"/>
<path d="M460.787 160.143H463.032V166.735H466.243V168.61H460.787V160.143Z" fill="#F89739"/>
<path d="M469.089 160.143H471.804L474.388 168.604H472.013L471.048 164.487C470.839 163.68 470.63 162.651 470.415 161.804H470.363C470.181 162.664 469.972 163.68 469.764 164.487L468.797 168.604H466.5L469.089 160.143ZM468.358 165.081H472.512V166.818H468.362L468.358 165.081Z" fill="#F89739"/>
<path d="M475.072 160.143H477.368L479.248 163.922L480.056 165.823H480.109C480.004 164.91 479.822 163.634 479.822 162.592V160.143H481.962V168.604H479.665L477.786 164.816L476.977 162.921H476.924C477.029 163.885 477.213 165.11 477.213 166.152V168.6H475.072V160.143Z" fill="#F89739"/>
<path d="M452.332 171.427C453.874 171.3 455.417 171.185 456.961 171.078C458.504 170.971 460.051 170.887 461.595 170.807C464.687 170.644 467.78 170.515 470.874 170.437C473.968 170.358 477.066 170.361 480.16 170.456C481.707 170.501 483.254 170.582 484.796 170.717C486.338 170.852 487.879 171.053 489.381 171.427C487.874 171.073 486.332 170.905 484.791 170.779C483.25 170.652 481.704 170.577 480.157 170.539C477.064 170.458 473.97 170.487 470.876 170.563C467.782 170.639 464.691 170.741 461.6 170.89C460.055 170.964 458.509 171.048 456.964 171.142C455.419 171.237 453.875 171.331 452.332 171.427Z" fill="black"/>
<path d="M451.377 175.153C453.021 174.953 454.666 174.767 456.31 174.586C457.955 174.406 459.599 174.249 461.244 174.093C464.532 173.783 467.837 173.503 471.138 173.274C474.44 173.046 477.748 172.895 481.057 172.825C482.711 172.791 484.367 172.786 486.022 172.835C487.677 172.872 489.328 173.01 490.966 173.248C489.326 173.031 487.675 172.914 486.02 172.897C484.367 172.856 482.712 172.868 481.058 172.909C477.751 172.989 474.447 173.172 471.146 173.399C467.844 173.627 464.546 173.88 461.251 174.176C459.603 174.325 457.956 174.482 456.31 174.648C454.665 174.814 453.021 174.982 451.377 175.153Z" fill="black"/>
<path d="M547.744 98.6781C560.305 98.6781 570.488 88.3858 570.488 75.6897C570.488 62.9935 560.305 52.7013 547.744 52.7013C535.183 52.7013 525 62.9935 525 75.6897C525 88.3858 535.183 98.6781 547.744 98.6781Z" fill="#C6E9EF"/>
<path d="M547.744 96.1852C558.943 96.1852 568.021 87.0091 568.021 75.6897C568.021 64.3703 558.943 55.1941 547.744 55.1941C536.545 55.1941 527.467 64.3703 527.467 75.6897C527.467 87.0091 536.545 96.1852 547.744 96.1852Z" fill="#F9FAFA"/>
<path d="M549.442 75.6897C549.438 76.0243 549.335 76.3502 549.145 76.6265C548.956 76.9027 548.689 77.117 548.379 77.2422C548.068 77.3674 547.727 77.3981 547.399 77.3303C547.07 77.2625 546.77 77.0992 546.534 76.8611C546.298 76.623 546.139 76.3207 546.075 75.9922C546.011 75.6637 546.046 75.3237 546.176 75.015C546.305 74.7063 546.523 74.4427 546.802 74.2574C547.081 74.0721 547.409 73.9733 547.744 73.9735C547.968 73.9748 548.19 74.0203 548.397 74.1073C548.604 74.1942 548.791 74.321 548.949 74.4804C549.107 74.6398 549.231 74.8286 549.316 75.0361C549.4 75.2436 549.443 75.4657 549.442 75.6897Z" fill="#C6E9EF"/>
<path d="M548.174 55.943H547.358V59.6923H548.174V55.943Z" fill="#C6E9EF"/>
<path d="M548.174 91.7098H547.358V95.4591H548.174V91.7098Z" fill="#C6E9EF"/>
<path d="M567.314 76.1127V75.2881H563.606V76.1127H567.314Z" fill="#C6E9EF"/>
<path d="M531.928 76.1127V75.2881H528.219V76.1127H531.928Z" fill="#C6E9EF"/>
<path d="M547.317 75.0962L547.774 62.0992L548.231 75.0962H547.317Z" fill="#C6E9EF"/>
<path d="M547.246 75.9219L538.483 66.3977L547.892 75.2703L547.246 75.9219Z" fill="#C6E9EF"/>
<g opacity="0.47">
<path opacity="0.47" d="M681.864 201.782H622.268V315.619H681.864V201.782Z" fill="#4BB2B7"/>
<path opacity="0.47" d="M676.324 207.312V310.089H627.808V207.312H676.324ZM681.864 201.782H622.268V315.619H681.864V201.782Z" fill="#9DF7FC"/>
<path opacity="0.47" d="M678.83 257.552H625.412V263.082H678.83V257.552Z" fill="#9DF7FC"/>
<path opacity="0.47" d="M673.464 286.001H630.779V298.197H673.464V286.001Z" fill="white"/>
<path opacity="0.47" d="M673.464 288.767H630.779V289.557H673.464V288.767Z" fill="#D0E2E4"/>
<path opacity="0.47" d="M673.464 291.704H630.779V292.494H673.464V291.704Z" fill="#D0E2E4"/>
<path opacity="0.47" d="M673.464 294.754H630.779V295.544H673.464V294.754Z" fill="#D0E2E4"/>
<path opacity="0.47" d="M673.464 273.805H630.779V286.001H673.464V273.805Z" fill="white"/>
<path opacity="0.47" d="M673.464 276.57H630.779V277.361H673.464V276.57Z" fill="#D0E2E4"/>
<path opacity="0.47" d="M673.464 279.508H630.779V280.298H673.464V279.508Z" fill="#D0E2E4"/>
<path opacity="0.47" d="M673.464 282.557H630.779V283.348H673.464V282.557Z" fill="#D0E2E4"/>
<path opacity="0.47" d="M638.817 256.902V220.362H632.585V256.902H638.817Z" fill="#E5EAEE"/>
<path opacity="0.47" d="M640.845 257.494V219.77H638.817V257.494H640.845Z" fill="#668787"/>
<path opacity="0.47" d="M632.684 257.494V219.77H630.656V257.494H632.684Z" fill="#668787"/>
<path opacity="0.47" d="M649.006 256.903V220.363H642.773V256.903H649.006Z" fill="#E5EAEE"/>
<path opacity="0.47" d="M651.032 257.494V219.77H649.005V257.494H651.032Z" fill="#65566D"/>
<path opacity="0.47" d="M642.872 257.494V219.77H640.844V257.494H642.872Z" fill="#65566D"/>
<path opacity="0.47" d="M673.464 297.978H630.779V310.026H673.464V297.978Z" fill="#F89739"/>
<path opacity="0.47" d="M661.272 219.77H651.083V257.494H661.272V219.77Z" fill="#F89739"/>
<path opacity="0.47" d="M671.461 219.77H661.271V257.494H671.461V219.77Z" fill="#D0E2E4"/>
</g>
<path d="M333.012 281.053C332.264 281.649 331.592 282.334 331.011 283.093C330.824 281.493 330.637 279.897 330.451 278.303C330.338 277.344 330.228 276.362 330.451 275.422C330.612 274.738 330.956 274.061 330.83 273.368C330.33 273.926 330.07 274.658 330.108 275.406C329.77 274.136 329.623 272.83 329.299 271.556C328.887 269.934 328.567 267.594 328.318 264.885C330.993 260.844 332.745 260.776 332.745 260.776C332.745 260.776 333.957 259.996 332.745 260.219C331.769 260.399 329.203 263.033 328.239 264.048C328.429 263.847 328.096 262.22 328.075 261.901C328.021 261.116 327.972 260.33 327.929 259.544C327.841 257.951 327.449 256.353 327.962 254.817C328.488 253.247 329.269 251.773 330.273 250.455C330.138 250.337 329.945 250.506 329.848 250.657C329.097 251.84 328.38 253.044 327.698 254.268C327.503 248.502 327.427 242.735 327.469 236.967C327.196 237.18 327.169 237.577 327.167 237.923L327.119 242.959L325.327 241.432L325.179 241.652L326.72 243.652C326.875 243.82 326.991 244.018 327.062 244.235C327.132 244.451 327.155 244.68 327.129 244.906L327.164 251.392C325.63 249.638 324.011 247.823 321.844 246.962C322.952 247.402 324.093 248.738 324.88 249.6C325.77 250.589 326.548 251.672 327.201 252.831C327.275 257.377 327.422 262.019 327.687 265.382C327.15 264.493 326.564 263.634 325.931 262.811C325.931 262.811 325.211 262.266 325.534 262.638C325.761 262.9 327.036 265.082 327.769 266.348C327.802 266.7 327.837 267.037 327.873 267.35C328.282 270.904 328.912 274.449 329.447 277.988L323.889 270.972C323.539 271.343 323.882 271.934 324.216 272.32C325.824 274.177 327.312 276.134 328.671 278.179C329.05 278.741 329.412 279.316 329.635 279.955C329.857 280.594 329.932 281.302 329.998 281.99C330.391 286.077 330.702 290.286 329.508 294.214L331.495 294.206C331.371 291.027 331.244 287.848 331.116 284.67C331.095 284.437 331.11 284.202 331.16 283.973C331.23 283.759 331.336 283.558 331.474 283.379C331.824 282.885 332.24 282.44 332.71 282.057C332.883 281.94 333.028 281.786 333.133 281.605C333.233 281.414 333.198 281.148 333.012 281.053Z" fill="#4EBFC4"/>
<path d="M325.76 266.618C325.721 267.227 325.648 267.833 325.542 268.434C325.32 269.727 324.909 270.76 324.349 271.581C324.282 271.681 324.212 271.778 324.14 271.872L324.129 271.887L324.002 272.05C323.962 272.099 323.92 272.148 323.876 272.195C322.692 273.52 321.046 274.145 319.241 274.381C316.213 274.779 312.193 270.213 312.143 266.055C312.131 265.027 312.318 263.969 312.865 263.089C312.874 263.072 312.884 263.056 312.895 263.039L312.987 262.903L313.003 262.88L313.02 262.855C313.558 262.133 314.278 261.566 315.107 261.213C315.134 261.199 315.159 261.189 315.185 261.178C317.083 260.365 319.472 260.432 321.276 260.954C323.496 261.598 324.75 262.498 325.344 263.784C325.704 264.57 325.82 265.506 325.76 266.618Z" fill="#A5DDEA"/>
<path d="M324.348 271.581C324.281 271.681 324.211 271.778 324.139 271.871L324.128 271.887L324.001 272.049L312.974 262.928C312.978 262.919 312.982 262.911 312.988 262.903C312.993 262.895 312.998 262.887 313.003 262.879L324.348 271.581Z" fill="#4EBFC4"/>
<path d="M339.675 246.088C339.681 246.683 339.618 247.276 339.488 247.856C339.477 247.909 339.463 247.961 339.45 248.014C339.31 248.585 339.093 249.133 338.806 249.646C338.774 249.701 338.742 249.754 338.71 249.809C338.476 250.198 338.199 250.561 337.886 250.891C335.022 253.913 330.009 251.386 330.009 251.386C329.959 251.368 329.911 251.346 329.865 251.32C329.825 251.301 329.776 251.275 329.723 251.245L329.698 251.229L329.68 251.219L329.554 251.145L329.498 251.111C329.46 251.085 329.418 251.06 329.372 251.03C328.289 250.313 326.235 248.471 326.536 245.261C326.545 245.17 326.555 245.078 326.567 244.986C326.631 244.518 326.735 244.057 326.877 243.607C326.939 243.404 327.012 243.206 327.097 243.012C327.124 242.946 327.152 242.886 327.183 242.818C327.421 242.304 327.735 241.829 328.116 241.41C328.154 241.365 328.191 241.324 328.234 241.283C328.558 240.947 328.92 240.65 329.313 240.399L329.449 240.316C329.89 240.053 330.36 239.842 330.849 239.685C330.896 239.667 330.945 239.652 330.993 239.638C331.451 239.498 331.921 239.401 332.396 239.346C332.446 239.346 332.495 239.334 332.545 239.33C333.108 239.271 333.675 239.267 334.238 239.318L334.385 239.334C334.788 239.376 335.188 239.449 335.58 239.553C335.629 239.566 335.677 239.579 335.723 239.592C335.93 239.65 336.133 239.72 336.333 239.799C336.38 239.817 336.428 239.836 336.474 239.858L336.555 239.893C336.595 239.911 336.634 239.927 336.67 239.946C336.932 240.067 337.181 240.215 337.412 240.388L337.428 240.401C337.595 240.526 337.747 240.67 337.881 240.83C338.067 241.054 338.236 241.291 338.387 241.54C338.412 241.579 338.436 241.619 338.458 241.666C338.65 241.99 338.819 242.328 338.964 242.676C338.983 242.722 339.001 242.768 339.021 242.814C339.206 243.284 339.352 243.769 339.46 244.262C339.47 244.313 339.48 244.362 339.491 244.413C339.591 244.915 339.648 245.425 339.662 245.937C339.673 245.986 339.675 246.038 339.675 246.088Z" fill="#BBF2FF"/>
<path d="M326.214 263.027C326.197 263.052 326.178 263.076 326.157 263.099L325.982 263.292V263.298C325.968 263.312 325.956 263.325 325.942 263.336C325.764 263.51 325.564 263.659 325.346 263.78C324.109 264.466 322.549 264.529 321.116 264.37C321.01 264.359 320.902 264.346 320.796 264.331C320.543 264.298 320.3 264.259 320.062 264.216C319.587 264.129 319.087 264.028 318.594 263.893C318.501 263.868 318.409 263.841 318.318 263.812C317.669 263.631 317.052 263.347 316.493 262.972C316.437 262.936 316.38 262.894 316.327 262.846C315.948 262.558 315.63 262.198 315.392 261.785C315.366 261.739 315.34 261.691 315.315 261.64C315.309 261.631 315.304 261.622 315.3 261.612C315.235 261.486 315.173 261.341 315.11 261.201C314.976 260.889 314.859 260.571 314.761 260.247C314.746 260.198 314.733 260.149 314.718 260.098C314.589 259.646 314.501 259.183 314.455 258.715C314.455 258.665 314.446 258.616 314.442 258.565C314.392 257.964 314.435 257.359 314.569 256.771C314.58 256.723 314.591 256.677 314.605 256.633C314.715 256.21 314.888 255.807 315.119 255.436C315.145 255.393 315.172 255.35 315.201 255.309C315.404 255.009 315.644 254.735 315.916 254.495C315.945 254.468 315.976 254.442 316.008 254.415C316.118 254.323 316.235 254.234 316.356 254.149L316.428 254.101C316.446 254.087 316.465 254.075 316.485 254.064C316.729 253.9 316.982 253.75 317.244 253.616L317.259 253.607L317.362 253.555C317.427 253.523 317.488 253.49 317.56 253.459C317.827 253.336 318.1 253.225 318.379 253.13C318.425 253.113 318.472 253.098 318.52 253.084C318.925 252.952 319.34 252.852 319.761 252.785C319.811 252.776 319.859 252.769 319.91 252.764C320.381 252.694 320.857 252.669 321.332 252.688H321.485C322.037 252.718 322.584 252.81 323.115 252.963C323.166 252.977 323.217 252.993 323.268 253.01C323.806 253.176 324.321 253.409 324.801 253.704C324.851 253.736 324.901 253.768 324.95 253.804C327.128 255.361 328.078 260.68 326.214 263.027Z" fill="#5BC7D1"/>
<path d="M323.745 245.434C323.722 245.75 323.695 246.024 323.691 246.244C323.683 246.63 323.522 247.107 323.222 247.597C323.206 247.628 323.187 247.655 323.168 247.686L323.153 247.711L323.003 247.924L322.988 247.947C321.903 249.423 319.613 250.873 316.505 250.295C312.112 249.476 312.223 244.645 312.856 241.82C312.923 241.51 313.037 241.212 313.195 240.936C313.195 240.936 313.195 240.936 313.195 240.927C313.954 239.625 315.517 239.259 316.484 239.159C316.725 239.134 316.93 239.128 317.077 239.126C317.203 239.126 317.284 239.126 317.308 239.126C321.703 239.505 323.159 241.264 323.598 242.994C323.836 243.885 323.796 244.752 323.745 245.434Z" fill="#A5DDEA"/>
<path d="M325.565 241.623V241.631C325.521 241.733 325.469 241.833 325.41 241.927C325.077 242.448 324.557 242.821 323.957 242.972C322.365 243.429 316.957 240.067 315.691 237.211C315.218 236.139 314.774 234.822 315.195 233.665C315.243 233.535 315.327 233.421 315.437 233.336L315.487 233.297C315.955 232.979 316.789 233.007 317.277 233.037C318.02 233.095 318.747 233.278 319.428 233.579C321.113 234.295 322.59 235.509 323.821 236.841C324.5 237.572 325.633 238.687 325.775 239.745C325.876 240.379 325.804 241.027 325.565 241.623Z" fill="#4EBFC4"/>
<path d="M338.129 267.756C337.788 270.483 333.899 274.838 332.359 274.931C331.694 274.972 331.175 274.805 330.786 274.502C330.674 274.415 330.571 274.317 330.478 274.209C330.149 273.806 329.933 273.322 329.855 272.808C329.69 271.899 330.393 270.649 330.797 269.846C331.531 268.386 332.508 266.954 333.81 265.869C334.339 265.417 334.937 265.052 335.581 264.788C336.009 264.62 336.742 264.351 337.246 264.476C337.386 264.508 337.512 264.583 337.606 264.691C338.291 265.519 338.256 266.734 338.129 267.756Z" fill="#5BC7D1"/>
<path d="M334.015 231.86C334.015 231.926 334.015 231.986 334.007 232.055C333.953 232.862 333.741 233.651 333.383 234.377C333.348 234.45 333.311 234.52 333.274 234.593C333.232 234.672 333.189 234.751 333.148 234.829C332.136 236.627 330.318 237.817 328.2 237.467C328.2 237.467 327.964 237.457 327.584 237.4L327.441 237.377L327.381 237.369L327.176 237.332C325.691 237.049 323.037 236.195 322.298 233.656C322.278 233.585 322.259 233.513 322.242 233.44C322.191 233.224 322.154 233.004 322.132 232.783C322.101 232.476 322.096 232.167 322.118 231.859C322.118 231.8 322.129 231.74 322.135 231.681C322.181 231.237 322.28 230.8 322.431 230.38C322.447 230.33 322.466 230.277 322.487 230.226C322.64 229.83 322.831 229.449 323.057 229.089L323.146 228.951C323.396 228.576 323.679 228.224 323.991 227.899C324.025 227.862 324.06 227.825 324.096 227.791C324.32 227.567 324.558 227.356 324.808 227.16C324.88 227.103 324.952 227.046 325.027 226.991L325.153 226.896C325.541 226.609 325.948 226.351 326.373 226.122L326.499 226.059C326.854 225.875 327.224 225.723 327.606 225.605C327.653 225.589 327.701 225.576 327.749 225.564C328.045 225.481 328.349 225.429 328.656 225.41H328.729C328.856 225.403 328.982 225.403 329.109 225.41H329.129C329.37 225.424 329.609 225.467 329.84 225.536L329.949 225.571C330.195 225.659 330.429 225.777 330.646 225.922C330.73 225.979 330.814 226.039 330.899 226.1C330.939 226.131 330.978 226.16 331.016 226.191C331.352 226.458 331.664 226.754 331.949 227.075L332.052 227.191C332.323 227.505 332.576 227.832 332.811 228.163C332.844 228.207 332.876 228.254 332.906 228.298C332.936 228.342 332.966 228.381 332.992 228.424C333.345 228.953 333.617 229.531 333.8 230.14C333.816 230.194 333.831 230.246 333.843 230.298C333.974 230.808 334.032 231.334 334.015 231.86Z" fill="#A5DDEA"/>
<path d="M344.902 277.136C344.902 277.182 344.902 277.228 344.902 277.275C344.896 277.5 344.877 277.731 344.847 277.967C344.847 278.016 344.834 278.066 344.826 278.115C344.777 278.441 344.71 278.765 344.625 279.083C344.611 279.133 344.599 279.182 344.585 279.231C344.449 279.71 344.28 280.178 344.079 280.633C344.058 280.681 344.036 280.726 344.014 280.774C343.797 281.253 343.543 281.715 343.255 282.155C343.227 282.199 343.197 282.244 343.168 282.288C342.835 282.776 342.454 283.229 342.029 283.64L341.903 283.756C341.529 284.104 341.115 284.406 340.67 284.656C340.611 284.688 340.555 284.718 340.496 284.747C339.817 285.101 339.062 285.287 338.295 285.29C336.118 285.29 333.605 284.056 332.967 281.814L332.945 281.734V281.716C332.929 281.658 332.914 281.599 332.899 281.537C332.9 281.532 332.9 281.528 332.899 281.523C332.883 281.453 332.867 281.382 332.855 281.309C332.852 281.298 332.85 281.287 332.848 281.276C332.512 279.474 332.783 277.386 333.678 275.77C333.776 275.594 333.887 275.425 334.01 275.265C334.068 275.189 334.129 275.118 334.194 275.047C334.558 274.649 334.992 274.32 335.475 274.076C335.53 274.046 335.588 274.017 335.647 273.989C336.066 273.791 336.504 273.632 336.953 273.517L337.134 273.469C337.641 273.348 338.153 273.255 338.67 273.19L338.842 273.167C339.026 273.144 339.209 273.124 339.39 273.106C339.692 273.074 339.995 273.061 340.299 273.065H340.47C340.984 273.079 341.495 273.16 341.988 273.306C342.037 273.321 342.085 273.335 342.132 273.351C342.491 273.471 342.835 273.635 343.154 273.839L343.281 273.922C343.508 274.081 343.72 274.262 343.913 274.461C343.948 274.497 343.983 274.532 344.014 274.569C344.136 274.702 344.25 274.843 344.354 274.989L344.363 275.005C344.368 275.009 344.371 275.014 344.373 275.02C344.629 275.414 344.79 275.862 344.847 276.328C344.847 276.372 344.858 276.415 344.864 276.462C344.89 276.686 344.903 276.911 344.902 277.136Z" fill="#4EBFC4"/>
<path d="M325.565 241.623V241.631L325.409 241.927L315.437 233.34L315.487 233.301L325.565 241.623Z" fill="#F3F9FF"/>
<path d="M337.526 264.687L330.728 274.437C330.598 274.326 330.479 274.204 330.371 274.071L337.526 264.687Z" fill="#6198BA"/>
<path d="M323.229 247.6L323.168 247.686L323.153 247.711L323.004 247.925L322.989 247.947L313.195 240.946C313.195 240.946 313.195 240.946 313.195 240.937L323.219 247.601L323.229 247.6Z" fill="#F3F9FF"/>
<path d="M330.079 250.515L329.942 250.571C329.916 250.508 328.052 245.542 327.104 243.01C327.13 242.944 327.158 242.883 327.19 242.815C328.115 245.285 330.047 250.438 330.079 250.515Z" fill="#F3F9FF"/>
<path d="M330.612 249.676L330.55 250.003L328.12 241.407C328.158 241.363 328.196 241.321 328.239 241.281L330.612 249.676Z" fill="#F3F9FF"/>
<path d="M331.208 248.92L331.147 248.874L331.069 249.103C331.069 248.889 329.958 243.457 329.318 240.398L329.454 240.315C331.273 248.831 331.234 248.883 331.208 248.92Z" fill="#F3F9FF"/>
<path d="M329.565 251.075L329.498 251.108L329.431 251.141L329.377 251.027L326.537 245.259C326.546 245.168 326.556 245.076 326.569 244.983L329.565 251.075Z" fill="#F3F9FF"/>
<path d="M331.976 247.938L331.828 247.956L330.86 239.683C330.907 239.666 330.956 239.65 331.005 239.637L331.976 247.938Z" fill="#F3F9FF"/>
<path d="M332.699 246.881L332.539 247.095C332.48 244.728 332.401 240.987 332.401 239.351C332.451 239.351 332.5 239.339 332.551 239.335C332.558 240.84 332.635 244.356 332.699 246.881Z" fill="#F3F9FF"/>
<path d="M334.39 239.332L333.521 245.932L333.395 246.035L334.246 239.317L334.39 239.332Z" fill="#F3F9FF"/>
<path d="M335.728 239.591L334.763 244.094L334.562 244.318L335.585 239.552C335.634 239.565 335.682 239.577 335.728 239.591Z" fill="#F3F9FF"/>
<path d="M336.676 239.945C336.464 240.758 336.191 241.785 336.036 242.374L335.918 242.46C336.122 241.695 336.373 240.673 336.561 239.892C336.6 239.909 336.639 239.926 336.676 239.945Z" fill="#F3F9FF"/>
<path d="M338.807 249.644C338.775 249.7 338.743 249.753 338.71 249.807L330.019 250.905L330 250.757L338.807 249.644Z" fill="#F3F9FF"/>
<path d="M339.488 247.855C339.478 247.908 339.464 247.96 339.45 248.013L330.848 249.655L330.82 249.509L339.488 247.855Z" fill="#F3F9FF"/>
<path d="M339.675 246.088L331.52 248.605L331.477 248.465L339.673 245.939C339.673 245.986 339.675 246.038 339.675 246.088Z" fill="#F3F9FF"/>
<path d="M339.502 244.411C336.951 245.486 332.692 247.278 332.545 247.28L332.532 247.134C332.728 247.095 336.833 245.366 339.464 244.261C339.481 244.312 339.491 244.356 339.502 244.411Z" fill="#F3F9FF"/>
<path d="M339.032 242.813L333.89 245.429L333.821 245.303L338.975 242.68C338.994 242.72 339.011 242.767 339.032 242.813Z" fill="#F3F9FF"/>
<path d="M338.465 241.658L335.271 243.44L335.383 243.243L338.395 241.538C338.42 241.578 338.444 241.618 338.465 241.658Z" fill="#F3F9FF"/>
<path d="M334.191 275.042C333.834 277.399 333.398 280.293 333.283 281.066C333.265 281.186 333.255 281.254 333.252 281.263L333.104 281.247C333.104 281.247 333.104 281.211 333.117 281.157C333.199 280.608 333.638 277.703 334.003 275.262C334.065 275.185 334.127 275.114 334.191 275.042Z" fill="white"/>
<path d="M335.644 273.985L334.064 280.639V280.663L333.852 280.916L333.896 280.73L335.478 274.069C335.526 274.042 335.585 274.013 335.644 273.985Z" fill="white"/>
<path d="M337.131 273.465C335.648 278.274 335.189 279.686 335.032 280.106C334.97 280.279 334.956 280.284 334.946 280.291L334.915 280.222L334.736 280.383C334.744 280.368 334.763 280.32 334.792 280.239C335.045 279.502 336.108 276.189 336.95 273.513L337.131 273.465Z" fill="white"/>
<path d="M338.839 273.163L336.238 279.446L336.144 279.676L336.123 279.726L336.09 279.803L335.989 279.762L335.953 279.746L336.03 279.561L338.668 273.186L338.839 273.163Z" fill="white"/>
<path d="M340.468 273.063C339.691 274.494 338.42 276.901 337.423 278.797C337.384 278.87 337.347 278.942 337.308 279.014L337.246 279.14L337.003 279.25C337.018 279.223 337.031 279.196 337.046 279.169C337.085 279.096 337.123 279.02 337.164 278.944C338.116 277.133 339.457 274.601 340.296 273.067L340.468 273.063Z" fill="white"/>
<path d="M342.135 273.35L338.545 278.182L338.376 278.406L338.358 278.432H338.321L338.194 278.454L338.302 278.308L341.99 273.298C342.04 273.32 342.088 273.334 342.135 273.35Z" fill="white"/>
<path d="M343.281 273.921L340.477 277.122L340.313 277.31L340.143 277.504L339.858 277.601L339.918 277.533L340.095 277.332L343.157 273.838L343.281 273.921Z" fill="white"/>
<path d="M344.015 274.567L342.98 275.748L342.899 275.84L342.831 275.92L342.648 275.983L342.546 276.02L342.6 275.956L343.913 274.46C343.949 274.495 343.983 274.537 344.015 274.567Z" fill="white"/>
<path d="M340.673 284.651C340.615 284.683 340.558 284.713 340.5 284.742L332.964 281.72L332.944 281.711C332.929 281.653 332.914 281.594 332.898 281.532L333.126 281.623L340.673 284.651Z" fill="white"/>
<path d="M342.031 283.629L341.904 283.746L333.968 281.123L333.766 281.056L333.781 281.008L333.811 280.914L333.896 280.944L334.139 281.023L342.031 283.629Z" fill="white"/>
<path d="M343.252 282.149C343.224 282.194 343.194 282.239 343.165 282.283L334.954 280.552L334.843 280.529L334.871 280.403V280.389H334.887L335.14 280.442L343.252 282.149Z" fill="white"/>
<path d="M344.082 280.626C344.062 280.674 344.039 280.72 344.018 280.768C341.637 280.515 337.04 280.01 336.114 279.871C336.059 279.865 336.005 279.854 335.952 279.84L335.988 279.763L336.013 279.706C336.031 279.711 336.05 279.715 336.069 279.718C336.086 279.72 336.104 279.723 336.122 279.727L336.315 279.754C337.484 279.909 341.681 280.366 344.082 280.626Z" fill="white"/>
<path d="M344.626 279.083C344.612 279.133 344.599 279.182 344.585 279.231L337.648 278.979H337.538V278.893V278.831H337.639L337.881 278.84L344.626 279.083Z" fill="white"/>
<path d="M344.843 277.967C344.843 278.016 344.831 278.066 344.823 278.115L339.221 278.049H339.013H338.994L339.188 277.93H339.424L344.843 277.967Z" fill="white"/>
<path d="M344.903 277.136C344.903 277.182 344.903 277.228 344.903 277.275L340.626 277.227H340.492L340.684 277.108H340.831L344.903 277.136Z" fill="white"/>
<path d="M344.868 276.465L341.975 276.433H341.865L341.928 276.393L342.055 276.314H342.181L344.852 276.332C344.856 276.376 344.862 276.419 344.868 276.465Z" fill="white"/>
<path d="M327.709 236.228L327.621 236.347C327.573 236.312 324.311 233.653 322.114 231.863C322.114 231.803 322.124 231.744 322.131 231.685L327.709 236.228Z" fill="#F3F9FF"/>
<path d="M327.788 235.55L327.681 235.448L322.427 230.384C322.443 230.333 322.462 230.28 322.482 230.23L327.669 235.234L327.728 235.401L327.788 235.55Z" fill="#F3F9FF"/>
<path d="M327.882 234.282L327.808 234.275L327.854 234.51C327.763 234.358 325.133 231.409 323.047 229.095L323.135 228.956C327.892 234.182 327.885 234.242 327.882 234.282Z" fill="#F3F9FF"/>
<path d="M327.549 236.97L327.519 237.018L327.468 237.095L327.44 237.077L327.364 237.026L322.293 233.66C322.273 233.589 322.254 233.517 322.237 233.444L327.432 236.893L327.549 236.97Z" fill="#F3F9FF"/>
<path d="M328.044 233.052L327.925 233.142L323.986 227.904C324.02 227.867 324.056 227.83 324.091 227.796L328.044 233.052Z" fill="#F3F9FF"/>
<path d="M328.137 231.765L328.109 232.031C327.223 230.591 325.967 228.552 325.022 226.989L325.149 226.895C326.037 228.358 327.213 230.273 328.137 231.765Z" fill="#F3F9FF"/>
<path d="M328.372 230.538L328.314 230.692L326.367 226.119L326.494 226.056L328.372 230.538Z" fill="#F3F9FF"/>
<path d="M328.697 228.477L328.637 228.773L327.596 225.603C327.643 225.587 327.691 225.574 327.739 225.561L328.697 228.477Z" fill="#F3F9FF"/>
<path d="M328.965 226.306L328.942 226.455C328.855 226.137 328.751 225.776 328.646 225.407H328.72C328.813 225.748 328.898 226.062 328.965 226.306Z" fill="#F3F9FF"/>
<path d="M334.015 231.861C334.015 231.927 334.015 231.988 334.006 232.056L327.519 237.018L327.441 237.077L327.418 237.095L327.365 237.026L327.327 236.976L327.433 236.893L334.015 231.861Z" fill="#F3F9FF"/>
<path d="M333.383 234.379C333.347 234.453 333.31 234.522 333.274 234.595L327.437 237.374L327.39 237.396L327.376 237.365L327.327 237.262L333.383 234.379Z" fill="#F3F9FF"/>
<path d="M333.83 230.303L327.675 235.654L327.576 235.541L327.684 235.448L327.737 235.401L333.79 230.145C333.802 230.199 333.817 230.251 333.83 230.303Z" fill="#F3F9FF"/>
<path d="M332.979 228.428L327.919 233.922L327.811 233.821L332.889 228.3C332.924 228.344 332.953 228.385 332.979 228.428Z" fill="#F3F9FF"/>
<path d="M332.038 227.195C330.401 229.372 328.319 232.128 328.217 232.191L328.131 232.065C328.257 231.951 330.281 229.269 331.935 227.074L332.038 227.195Z" fill="#F3F9FF"/>
<path d="M331.002 226.196L328.498 230.086L328.371 230.006L330.883 226.105C330.925 226.136 330.964 226.171 331.002 226.196Z" fill="#F3F9FF"/>
<path d="M329.938 225.576L328.8 227.505L328.828 227.286L329.826 225.54L329.938 225.576Z" fill="#F3F9FF"/>
<path d="M324.877 262.186C324.825 262.202 321.284 263.162 318.587 263.893C318.495 263.868 318.403 263.841 318.312 263.812L324.835 262.044L324.877 262.186Z" fill="#F3F9FF"/>
<path d="M324.367 261.53L316.484 262.976C316.428 262.939 316.371 262.898 316.318 262.85L324.047 261.432L324.367 261.53Z" fill="#F3F9FF"/>
<path d="M323.649 260.927C323.45 260.911 318.555 261.432 315.384 261.792C315.357 261.745 315.332 261.697 315.307 261.646C323.402 260.702 323.445 260.743 323.478 260.773L323.43 260.827L323.649 260.927Z" fill="#F3F9FF"/>
<path d="M325.398 262.745L321.11 264.37C321.004 264.359 320.896 264.346 320.79 264.331L325.344 262.605L325.398 262.745Z" fill="#F3F9FF"/>
<path d="M322.629 260.073L314.752 260.253C314.737 260.204 314.724 260.155 314.709 260.104L322.626 259.925L322.629 260.073Z" fill="#F3F9FF"/>
<path d="M321.857 259.277C319.638 259.128 316.213 258.881 314.449 258.722C314.449 258.671 314.44 258.622 314.437 258.571C316.081 258.71 319.308 258.94 321.658 259.099L321.857 259.277Z" fill="#F3F9FF"/>
<path d="M320.718 258.147L314.566 256.777C314.578 256.729 314.589 256.683 314.603 256.639L320.627 258.008L320.718 258.147Z" fill="#F3F9FF"/>
<path d="M319.271 256.745L315.111 255.442C315.138 255.399 315.164 255.356 315.194 255.316L319.066 256.529L319.271 256.745Z" fill="#F3F9FF"/>
<path d="M317.502 255.065C317.029 254.89 316.457 254.686 315.908 254.498C315.937 254.471 315.969 254.444 316.001 254.418L317.427 254.941L317.502 255.065Z" fill="#F3F9FF"/>
<path d="M325.216 262.14H325.068L324.794 253.71C324.845 253.741 324.894 253.773 324.943 253.809L325.216 262.14Z" fill="#F3F9FF"/>
<path d="M324.041 261.203L323.893 261.218L323.107 252.972C323.159 252.986 323.21 253.002 323.26 253.019L324.041 261.203Z" fill="#F3F9FF"/>
<path d="M323.065 260.253L322.919 260.282L321.325 252.69H321.478L323.065 260.253Z" fill="#F3F9FF"/>
<path d="M321.84 259.061H321.692C321.672 258.886 320.595 255.455 319.754 252.792C319.803 252.783 319.851 252.775 319.903 252.77C320.736 255.398 321.847 258.936 321.84 259.061Z" fill="#F3F9FF"/>
<path d="M320.346 257.695L320.208 257.749L318.371 253.132C318.418 253.116 318.465 253.101 318.513 253.087L320.346 257.695Z" fill="#F3F9FF"/>
<path d="M318.361 255.83L318.174 255.704L317.236 253.62L317.252 253.611L317.354 253.559L318.361 255.83Z" fill="#F3F9FF"/>
<path d="M337.433 240.399L329.865 251.319C329.824 251.3 329.776 251.273 329.723 251.243L329.698 251.228L329.68 251.218L329.554 251.143L329.498 251.109L337.417 240.388L337.433 240.399Z" fill="#F3F9FF"/>
<path d="M342.348 260.559C340.265 263.323 336.123 264.038 333.289 261.997C332.89 261.713 332.542 261.362 332.261 260.961L332.239 260.93L332.22 260.903L332.184 260.851C332.129 260.769 332.078 260.684 332.03 260.598L332.021 260.583C330.678 258.204 331.515 254.691 332.669 252.375C333.807 250.102 336.201 248.524 338.789 248.728C340.433 248.854 341.65 249.8 342.457 251.127C342.458 251.13 342.458 251.132 342.457 251.135C342.567 251.314 342.668 251.501 342.763 251.694C342.79 251.752 342.818 251.81 342.844 251.87C344.108 254.624 343.91 258.484 342.348 260.559Z" fill="#A5DDEA"/>
<path d="M342.46 251.14L332.258 260.961L332.235 260.93L332.216 260.903L332.181 260.851C332.125 260.769 332.074 260.684 332.026 260.598L342.455 251.127C342.457 251.128 342.458 251.13 342.459 251.132C342.46 251.135 342.46 251.137 342.46 251.14Z" fill="#F3F9FF"/>
<path d="M326.214 263.027C326.197 263.052 326.178 263.076 326.157 263.099L325.983 263.292V263.298C325.969 263.312 325.956 263.325 325.942 263.336L316.417 254.103C316.435 254.09 316.454 254.078 316.474 254.067L326.214 263.027Z" fill="#F3F9FF"/>
<path d="M329.119 225.414L327.58 237.41C327.454 237.393 327.327 237.37 327.172 237.342L329.098 225.414H329.119Z" fill="#F3F9FF"/>
<g opacity="0.34">
<path opacity="0.34" d="M325.76 266.618C315.993 269.358 315.121 261.398 315.102 261.209C315.162 261.35 315.228 261.487 315.29 261.619C315.295 261.628 315.3 261.637 315.305 261.646C315.331 261.697 315.356 261.745 315.382 261.792C315.62 262.204 315.938 262.565 316.317 262.852C316.37 262.894 316.427 262.936 316.483 262.979C317.043 263.354 317.659 263.637 318.308 263.818C318.399 263.847 318.492 263.874 318.584 263.899C319.077 264.034 319.577 264.135 320.053 264.222C320.29 264.265 320.536 264.305 320.786 264.337C320.893 264.352 321 264.365 321.106 264.376C322.54 264.536 324.099 264.472 325.336 263.787C325.703 264.57 325.82 265.505 325.76 266.618Z" fill="#5BC7D1"/>
</g>
<g opacity="0.34">
<path opacity="0.34" d="M323.745 245.434C320.817 245.159 317.717 240.993 316.494 239.171L317.087 239.138C319.01 241.174 322.132 242.979 323.608 243.012C323.836 243.885 323.797 244.752 323.745 245.434Z" fill="#5BC7D1"/>
</g>
<path d="M344.372 275.023L332.942 281.729C332.924 281.661 332.907 281.589 332.89 281.518C332.874 281.447 332.859 281.377 332.845 281.303L344.356 274.989L344.365 275.004C344.368 275.01 344.371 275.017 344.372 275.023Z" fill="#6198BA"/>
<path d="M340.016 294.103V298.594C340.016 298.703 339.995 298.811 339.953 298.912C339.911 299.013 339.849 299.105 339.772 299.182C339.695 299.26 339.603 299.321 339.502 299.363C339.4 299.405 339.292 299.426 339.183 299.426V308.403C339.183 309.493 338.749 310.538 337.977 311.309C337.205 312.08 336.158 312.513 335.066 312.513H325.677C325.136 312.513 324.6 312.406 324.101 312.2C323.601 311.993 323.147 311.69 322.765 311.308C322.382 310.926 322.079 310.473 321.872 309.974C321.665 309.475 321.559 308.941 321.559 308.401V299.426C321.45 299.426 321.341 299.405 321.24 299.363C321.139 299.321 321.047 299.26 320.97 299.182C320.892 299.105 320.831 299.013 320.789 298.912C320.747 298.811 320.726 298.703 320.726 298.594V294.111C320.726 293.731 320.877 293.367 321.147 293.098C321.416 292.83 321.781 292.679 322.161 292.679H338.583C338.962 292.679 339.326 292.829 339.594 293.096C339.863 293.363 340.015 293.725 340.016 294.103Z" fill="#5BC7D1"/>
<path d="M339.186 299.426V308.404C339.186 309.493 338.753 310.539 337.981 311.309C337.209 312.08 336.162 312.513 335.07 312.513H331.168C334.061 312.318 335.021 309.971 335.165 307.403C335.291 305.188 335.671 300.998 332.81 300.373L328.475 299.426H339.186Z" fill="#4BB2B7"/>
</svg>
